solid Default
  facet normal -1.000000e+00 0.000000e+00 0.000000e+00
    outer loop
      vertex -1.750000e+01 1.000000e+01 0.000000e+00
      vertex -1.750000e+01 -1.000000e+01 0.000000e+00
      vertex -1.750000e+01 1.000000e+01 5.000000e+00
    endloop
  endfacet
  facet normal -1.000000e+00 0.000000e+00 0.000000e+00
    outer loop
      vertex -1.750000e+01 1.000000e+01 5.000000e+00
      vertex -1.750000e+01 -1.000000e+01 0.000000e+00
      vertex -1.750000e+01 -1.000000e+01 5.000000e+00
    endloop
  endfacet
  facet normal 0.000000e+00 -2.220450e-16 -1.000000e+00
    outer loop
      vertex 1.472500e+01 -1.110220e-15 0.000000e+00
      vertex 1.750000e+01 1.000000e+01 0.000000e+00
      vertex 1.750000e+01 -1.000000e+01 0.000000e+00
    endloop
  endfacet
  facet normal 0.000000e+00 -2.220450e-16 -1.000000e+00
    outer loop
      vertex -4.174940e+00 3.503190e+00 0.000000e+00
      vertex -1.392500e+01 1.385640e+00 0.000000e+00
      vertex -2.725000e+00 4.719840e+00 0.000000e+00
    endloop
  endfacet
  facet normal 0.000000e+00 -2.220450e-16 -1.000000e+00
    outer loop
      vertex -1.152500e+01 -1.110220e-15 0.000000e+00
      vertex -5.121320e+00 1.864010e+00 0.000000e+00
      vertex -1.232500e+01 -1.385640e+00 0.000000e+00
    endloop
  endfacet
  facet normal 0.000000e+00 -2.220450e-16 -1.000000e+00
    outer loop
      vertex -1.750000e+01 1.000000e+01 0.000000e+00
      vertex -1.392500e+01 1.385640e+00 0.000000e+00
      vertex -1.472500e+01 -1.110220e-15 0.000000e+00
    endloop
  endfacet
  facet normal 0.000000e+00 -2.220450e-16 -1.000000e+00
    outer loop
      vertex -1.750000e+01 1.000000e+01 0.000000e+00
      vertex -1.472500e+01 -1.110220e-15 0.000000e+00
      vertex -1.750000e+01 -1.000000e+01 0.000000e+00
    endloop
  endfacet
  facet normal 0.000000e+00 -2.220450e-16 -1.000000e+00
    outer loop
      vertex -1.392500e+01 -1.385640e+00 0.000000e+00
      vertex -1.232500e+01 -1.385640e+00 0.000000e+00
      vertex -1.750000e+01 -1.000000e+01 0.000000e+00
    endloop
  endfacet
  facet normal 0.000000e+00 -2.220450e-16 -1.000000e+00
    outer loop
      vertex -9.463830e-01 5.367200e+00 0.000000e+00
      vertex 1.750000e+01 1.000000e+01 0.000000e+00
      vertex 9.463830e-01 5.367200e+00 0.000000e+00
    endloop
  endfacet
  facet normal 0.000000e+00 -2.220450e-16 -1.000000e+00
    outer loop
      vertex 9.463830e-01 5.367200e+00 0.000000e+00
      vertex 1.750000e+01 1.000000e+01 0.000000e+00
      vertex 2.725000e+00 4.719840e+00 0.000000e+00
    endloop
  endfacet
  facet normal 0.000000e+00 -2.220450e-16 -1.000000e+00
    outer loop
      vertex -5.121320e+00 1.864010e+00 0.000000e+00
      vertex -1.152500e+01 -1.110220e-15 0.000000e+00
      vertex -4.174940e+00 3.503190e+00 0.000000e+00
    endloop
  endfacet
  facet normal 0.000000e+00 -2.220450e-16 -1.000000e+00
    outer loop
      vertex -4.174940e+00 -3.503190e+00 0.000000e+00
      vertex -1.750000e+01 -1.000000e+01 0.000000e+00
      vertex -5.121320e+00 -1.864010e+00 0.000000e+00
    endloop
  endfacet
  facet normal 0.000000e+00 -2.220450e-16 -1.000000e+00
    outer loop
      vertex -1.232500e+01 -1.385640e+00 0.000000e+00
      vertex -5.450000e+00 -1.110220e-15 0.000000e+00
      vertex -1.750000e+01 -1.000000e+01 0.000000e+00
    endloop
  endfacet
  facet normal 0.000000e+00 -2.220450e-16 -1.000000e+00
    outer loop
      vertex 2.725000e+00 4.719840e+00 0.000000e+00
      vertex 1.750000e+01 1.000000e+01 0.000000e+00
      vertex 4.174940e+00 3.503190e+00 0.000000e+00
    endloop
  endfacet
  facet normal 0.000000e+00 -2.220450e-16 -1.000000e+00
    outer loop
      vertex -5.450000e+00 -1.110220e-15 0.000000e+00
      vertex -5.121320e+00 -1.864010e+00 0.000000e+00
      vertex -1.750000e+01 -1.000000e+01 0.000000e+00
    endloop
  endfacet
  facet normal 0.000000e+00 -2.220450e-16 -1.000000e+00
    outer loop
      vertex 9.463830e-01 -5.367200e+00 0.000000e+00
      vertex 1.750000e+01 -1.000000e+01 0.000000e+00
      vertex -9.463830e-01 -5.367200e+00 0.000000e+00
    endloop
  endfacet
  facet normal 0.000000e+00 -2.220450e-16 -1.000000e+00
    outer loop
      vertex -1.750000e+01 -1.000000e+01 0.000000e+00
      vertex -4.174940e+00 -3.503190e+00 0.000000e+00
      vertex -2.725000e+00 -4.719840e+00 0.000000e+00
    endloop
  endfacet
  facet normal 0.000000e+00 -2.220450e-16 -1.000000e+00
    outer loop
      vertex -1.750000e+01 -1.000000e+01 0.000000e+00
      vertex -2.725000e+00 -4.719840e+00 0.000000e+00
      vertex -9.463830e-01 -5.367200e+00 0.000000e+00
    endloop
  endfacet
  facet normal 0.000000e+00 -2.220450e-16 -1.000000e+00
    outer loop
      vertex -1.750000e+01 -1.000000e+01 0.000000e+00
      vertex -9.463830e-01 -5.367200e+00 0.000000e+00
      vertex 1.750000e+01 -1.000000e+01 0.000000e+00
    endloop
  endfacet
  facet normal 0.000000e+00 -2.220450e-16 -1.000000e+00
    outer loop
      vertex 2.725000e+00 -4.719840e+00 0.000000e+00
      vertex 1.750000e+01 -1.000000e+01 0.000000e+00
      vertex 9.463830e-01 -5.367200e+00 0.000000e+00
    endloop
  endfacet
  facet normal 0.000000e+00 -2.220450e-16 -1.000000e+00
    outer loop
      vertex 4.174940e+00 3.503190e+00 0.000000e+00
      vertex 1.750000e+01 1.000000e+01 0.000000e+00
      vertex 5.121320e+00 1.864010e+00 0.000000e+00
    endloop
  endfacet
  facet normal 0.000000e+00 -2.220450e-16 -1.000000e+00
    outer loop
      vertex 5.121320e+00 -1.864010e+00 0.000000e+00
      vertex 1.750000e+01 1.000000e+01 0.000000e+00
      vertex 4.174940e+00 -3.503190e+00 0.000000e+00
    endloop
  endfacet
  facet normal 0.000000e+00 -2.220450e-16 -1.000000e+00
    outer loop
      vertex 2.725000e+00 -4.719840e+00 0.000000e+00
      vertex 4.174940e+00 -3.503190e+00 0.000000e+00
      vertex 1.750000e+01 -1.000000e+01 0.000000e+00
    endloop
  endfacet
  facet normal 0.000000e+00 -2.220450e-16 -1.000000e+00
    outer loop
      vertex 5.450000e+00 -1.110220e-15 0.000000e+00
      vertex 1.750000e+01 1.000000e+01 0.000000e+00
      vertex 5.121320e+00 -1.864010e+00 0.000000e+00
    endloop
  endfacet
  facet normal 0.000000e+00 -2.220450e-16 -1.000000e+00
    outer loop
      vertex 5.121320e+00 1.864010e+00 0.000000e+00
      vertex 1.750000e+01 1.000000e+01 0.000000e+00
      vertex 5.450000e+00 -1.110220e-15 0.000000e+00
    endloop
  endfacet
  facet normal 0.000000e+00 -2.220450e-16 -1.000000e+00
    outer loop
      vertex 1.392500e+01 -1.385640e+00 0.000000e+00
      vertex 1.750000e+01 -1.000000e+01 0.000000e+00
      vertex 1.232500e+01 -1.385640e+00 0.000000e+00
    endloop
  endfacet
  facet normal 0.000000e+00 -2.220450e-16 -1.000000e+00
    outer loop
      vertex -5.450000e+00 -1.110220e-15 0.000000e+00
      vertex -1.232500e+01 -1.385640e+00 0.000000e+00
      vertex -5.121320e+00 1.864010e+00 0.000000e+00
    endloop
  endfacet
  facet normal 0.000000e+00 -2.220450e-16 -1.000000e+00
    outer loop
      vertex -1.750000e+01 1.000000e+01 0.000000e+00
      vertex 1.750000e+01 1.000000e+01 0.000000e+00
      vertex -9.463830e-01 5.367200e+00 0.000000e+00
    endloop
  endfacet
  facet normal 0.000000e+00 -2.220450e-16 -1.000000e+00
    outer loop
      vertex -1.750000e+01 1.000000e+01 0.000000e+00
      vertex -9.463830e-01 5.367200e+00 0.000000e+00
      vertex -1.392500e+01 1.385640e+00 0.000000e+00
    endloop
  endfacet
  facet normal 0.000000e+00 -2.220450e-16 -1.000000e+00
    outer loop
      vertex -4.174940e+00 3.503190e+00 0.000000e+00
      vertex -1.232500e+01 1.385640e+00 0.000000e+00
      vertex -1.392500e+01 1.385640e+00 0.000000e+00
    endloop
  endfacet
  facet normal 0.000000e+00 -2.220450e-16 -1.000000e+00
    outer loop
      vertex -9.463830e-01 5.367200e+00 0.000000e+00
      vertex -2.725000e+00 4.719840e+00 0.000000e+00
      vertex -1.392500e+01 1.385640e+00 0.000000e+00
    endloop
  endfacet
  facet normal 0.000000e+00 -2.220450e-16 -1.000000e+00
    outer loop
      vertex -1.232500e+01 1.385640e+00 0.000000e+00
      vertex -4.174940e+00 3.503190e+00 0.000000e+00
      vertex -1.152500e+01 -1.110220e-15 0.000000e+00
    endloop
  endfacet
  facet normal 0.000000e+00 -2.220450e-16 -1.000000e+00
    outer loop
      vertex 4.174940e+00 -3.503190e+00 0.000000e+00
      vertex 1.750000e+01 1.000000e+01 0.000000e+00
      vertex 1.232500e+01 1.385640e+00 0.000000e+00
    endloop
  endfacet
  facet normal 0.000000e+00 -2.220450e-16 -1.000000e+00
    outer loop
      vertex 4.174940e+00 -3.503190e+00 0.000000e+00
      vertex 1.232500e+01 1.385640e+00 0.000000e+00
      vertex 1.152500e+01 -1.110220e-15 0.000000e+00
    endloop
  endfacet
  facet normal 0.000000e+00 -2.220450e-16 -1.000000e+00
    outer loop
      vertex 4.174940e+00 -3.503190e+00 0.000000e+00
      vertex 1.152500e+01 -1.110220e-15 0.000000e+00
      vertex 1.232500e+01 -1.385640e+00 0.000000e+00
    endloop
  endfacet
  facet normal 0.000000e+00 -2.220450e-16 -1.000000e+00
    outer loop
      vertex 4.174940e+00 -3.503190e+00 0.000000e+00
      vertex 1.232500e+01 -1.385640e+00 0.000000e+00
      vertex 1.750000e+01 -1.000000e+01 0.000000e+00
    endloop
  endfacet
  facet normal 0.000000e+00 -2.220450e-16 -1.000000e+00
    outer loop
      vertex 1.392500e+01 1.385640e+00 0.000000e+00
      vertex 1.750000e+01 1.000000e+01 0.000000e+00
      vertex 1.472500e+01 -1.110220e-15 0.000000e+00
    endloop
  endfacet
  facet normal 0.000000e+00 -2.220450e-16 -1.000000e+00
    outer loop
      vertex 1.392500e+01 -1.385640e+00 0.000000e+00
      vertex 1.472500e+01 -1.110220e-15 0.000000e+00
      vertex 1.750000e+01 -1.000000e+01 0.000000e+00
    endloop
  endfacet
  facet normal 0.000000e+00 -2.220450e-16 -1.000000e+00
    outer loop
      vertex 1.232500e+01 1.385640e+00 0.000000e+00
      vertex 1.750000e+01 1.000000e+01 0.000000e+00
      vertex 1.392500e+01 1.385640e+00 0.000000e+00
    endloop
  endfacet
  facet normal 0.000000e+00 -2.220450e-16 -1.000000e+00
    outer loop
      vertex -1.392500e+01 -1.385640e+00 0.000000e+00
      vertex -1.750000e+01 -1.000000e+01 0.000000e+00
      vertex -1.472500e+01 -1.110220e-15 0.000000e+00
    endloop
  endfacet
  facet normal 0.000000e+00 1.000000e+00 -2.220450e-16
    outer loop
      vertex -1.750000e+01 1.000000e+01 0.000000e+00
      vertex -1.750000e+01 1.000000e+01 5.000000e+00
      vertex 1.750000e+01 1.000000e+01 0.000000e+00
    endloop
  endfacet
  facet normal 0.000000e+00 1.000000e+00 -2.220450e-16
    outer loop
      vertex 1.750000e+01 1.000000e+01 0.000000e+00
      vertex -1.750000e+01 1.000000e+01 5.000000e+00
      vertex 1.750000e+01 1.000000e+01 5.000000e+00
    endloop
  endfacet
  facet normal 0.000000e+00 2.220450e-16 1.000000e+00
    outer loop
      vertex -1.472500e+01 1.110220e-15 5.000000e+00
      vertex -1.750000e+01 1.000000e+01 5.000000e+00
      vertex -1.750000e+01 -1.000000e+01 5.000000e+00
    endloop
  endfacet
  facet normal 0.000000e+00 2.220450e-16 1.000000e+00
    outer loop
      vertex -1.392500e+01 -1.385640e+00 5.000000e+00
      vertex -1.472500e+01 1.110220e-15 5.000000e+00
      vertex -1.750000e+01 -1.000000e+01 5.000000e+00
    endloop
  endfacet
  facet normal 0.000000e+00 2.220450e-16 1.000000e+00
    outer loop
      vertex -1.392500e+01 1.385640e+00 5.000000e+00
      vertex -1.750000e+01 1.000000e+01 5.000000e+00
      vertex -1.472500e+01 1.110220e-15 5.000000e+00
    endloop
  endfacet
  facet normal 0.000000e+00 2.220450e-16 1.000000e+00
    outer loop
      vertex -2.725000e+00 4.719840e+00 5.000000e+00
      vertex -1.750000e+01 1.000000e+01 5.000000e+00
      vertex -1.392500e+01 1.385640e+00 5.000000e+00
    endloop
  endfacet
  facet normal 0.000000e+00 2.220450e-16 1.000000e+00
    outer loop
      vertex -5.121320e+00 1.864010e+00 5.000000e+00
      vertex -4.174940e+00 3.503190e+00 5.000000e+00
      vertex -1.152500e+01 1.110220e-15 5.000000e+00
    endloop
  endfacet
  facet normal 0.000000e+00 2.220450e-16 1.000000e+00
    outer loop
      vertex 2.725000e+00 4.719840e+00 5.000000e+00
      vertex 4.174940e+00 3.503190e+00 5.000000e+00
      vertex 1.750000e+01 1.000000e+01 5.000000e+00
    endloop
  endfacet
  facet normal 0.000000e+00 2.220450e-16 1.000000e+00
    outer loop
      vertex -5.450000e+00 1.110220e-15 5.000000e+00
      vertex -5.121320e+00 1.864010e+00 5.000000e+00
      vertex -1.232500e+01 -1.385640e+00 5.000000e+00
    endloop
  endfacet
  facet normal 0.000000e+00 2.220450e-16 1.000000e+00
    outer loop
      vertex -5.450000e+00 1.110220e-15 5.000000e+00
      vertex -1.232500e+01 -1.385640e+00 5.000000e+00
      vertex -1.750000e+01 -1.000000e+01 5.000000e+00
    endloop
  endfacet
  facet normal 0.000000e+00 2.220450e-16 1.000000e+00
    outer loop
      vertex -5.121320e+00 1.864010e+00 5.000000e+00
      vertex -1.152500e+01 1.110220e-15 5.000000e+00
      vertex -1.232500e+01 -1.385640e+00 5.000000e+00
    endloop
  endfacet
  facet normal 0.000000e+00 2.220450e-16 1.000000e+00
    outer loop
      vertex 4.174940e+00 3.503190e+00 5.000000e+00
      vertex 5.121320e+00 1.864010e+00 5.000000e+00
      vertex 1.750000e+01 1.000000e+01 5.000000e+00
    endloop
  endfacet
  facet normal 0.000000e+00 2.220450e-16 1.000000e+00
    outer loop
      vertex -5.121320e+00 -1.864010e+00 5.000000e+00
      vertex -5.450000e+00 1.110220e-15 5.000000e+00
      vertex -1.750000e+01 -1.000000e+01 5.000000e+00
    endloop
  endfacet
  facet normal 0.000000e+00 2.220450e-16 1.000000e+00
    outer loop
      vertex -1.232500e+01 -1.385640e+00 5.000000e+00
      vertex -1.392500e+01 -1.385640e+00 5.000000e+00
      vertex -1.750000e+01 -1.000000e+01 5.000000e+00
    endloop
  endfacet
  facet normal 0.000000e+00 2.220450e-16 1.000000e+00
    outer loop
      vertex -9.463830e-01 5.367200e+00 5.000000e+00
      vertex -1.750000e+01 1.000000e+01 5.000000e+00
      vertex -2.725000e+00 4.719840e+00 5.000000e+00
    endloop
  endfacet
  facet normal 0.000000e+00 2.220450e-16 1.000000e+00
    outer loop
      vertex 9.463830e-01 5.367200e+00 5.000000e+00
      vertex 2.725000e+00 4.719840e+00 5.000000e+00
      vertex 1.750000e+01 1.000000e+01 5.000000e+00
    endloop
  endfacet
  facet normal 0.000000e+00 2.220450e-16 1.000000e+00
    outer loop
      vertex 1.750000e+01 1.000000e+01 5.000000e+00
      vertex -1.750000e+01 1.000000e+01 5.000000e+00
      vertex -9.463830e-01 5.367200e+00 5.000000e+00
    endloop
  endfacet
  facet normal 0.000000e+00 2.220450e-16 1.000000e+00
    outer loop
      vertex -9.463830e-01 5.367200e+00 5.000000e+00
      vertex 9.463830e-01 5.367200e+00 5.000000e+00
      vertex 1.750000e+01 1.000000e+01 5.000000e+00
    endloop
  endfacet
  facet normal 0.000000e+00 2.220450e-16 1.000000e+00
    outer loop
      vertex -2.725000e+00 -4.719840e+00 5.000000e+00
      vertex -4.174940e+00 -3.503190e+00 5.000000e+00
      vertex -1.750000e+01 -1.000000e+01 5.000000e+00
    endloop
  endfacet
  facet normal 0.000000e+00 2.220450e-16 1.000000e+00
    outer loop
      vertex 9.463830e-01 -5.367200e+00 5.000000e+00
      vertex -9.463830e-01 -5.367200e+00 5.000000e+00
      vertex -1.750000e+01 -1.000000e+01 5.000000e+00
    endloop
  endfacet
  facet normal 0.000000e+00 2.220450e-16 1.000000e+00
    outer loop
      vertex 1.232500e+01 1.385640e+00 5.000000e+00
      vertex 1.392500e+01 1.385640e+00 5.000000e+00
      vertex 1.750000e+01 1.000000e+01 5.000000e+00
    endloop
  endfacet
  facet normal 0.000000e+00 2.220450e-16 1.000000e+00
    outer loop
      vertex 1.232500e+01 1.385640e+00 5.000000e+00
      vertex 1.750000e+01 1.000000e+01 5.000000e+00
      vertex 5.121320e+00 1.864010e+00 5.000000e+00
    endloop
  endfacet
  facet normal 0.000000e+00 2.220450e-16 1.000000e+00
    outer loop
      vertex 1.750000e+01 -1.000000e+01 5.000000e+00
      vertex 5.121320e+00 1.864010e+00 5.000000e+00
      vertex 5.450000e+00 1.110220e-15 5.000000e+00
    endloop
  endfacet
  facet normal 0.000000e+00 2.220450e-16 1.000000e+00
    outer loop
      vertex -4.174940e+00 -3.503190e+00 5.000000e+00
      vertex -5.121320e+00 -1.864010e+00 5.000000e+00
      vertex -1.750000e+01 -1.000000e+01 5.000000e+00
    endloop
  endfacet
  facet normal 0.000000e+00 2.220450e-16 1.000000e+00
    outer loop
      vertex 1.750000e+01 -1.000000e+01 5.000000e+00
      vertex 5.450000e+00 1.110220e-15 5.000000e+00
      vertex 5.121320e+00 -1.864010e+00 5.000000e+00
    endloop
  endfacet
  facet normal 0.000000e+00 2.220450e-16 1.000000e+00
    outer loop
      vertex 1.750000e+01 -1.000000e+01 5.000000e+00
      vertex 5.121320e+00 -1.864010e+00 5.000000e+00
      vertex 4.174940e+00 -3.503190e+00 5.000000e+00
    endloop
  endfacet
  facet normal 0.000000e+00 2.220450e-16 1.000000e+00
    outer loop
      vertex -9.463830e-01 -5.367200e+00 5.000000e+00
      vertex -2.725000e+00 -4.719840e+00 5.000000e+00
      vertex -1.750000e+01 -1.000000e+01 5.000000e+00
    endloop
  endfacet
  facet normal 0.000000e+00 2.220450e-16 1.000000e+00
    outer loop
      vertex 1.750000e+01 -1.000000e+01 5.000000e+00
      vertex 4.174940e+00 -3.503190e+00 5.000000e+00
      vertex 2.725000e+00 -4.719840e+00 5.000000e+00
    endloop
  endfacet
  facet normal 0.000000e+00 2.220450e-16 1.000000e+00
    outer loop
      vertex 1.750000e+01 -1.000000e+01 5.000000e+00
      vertex 9.463830e-01 -5.367200e+00 5.000000e+00
      vertex -1.750000e+01 -1.000000e+01 5.000000e+00
    endloop
  endfacet
  facet normal 0.000000e+00 2.220450e-16 1.000000e+00
    outer loop
      vertex 1.750000e+01 -1.000000e+01 5.000000e+00
      vertex 2.725000e+00 -4.719840e+00 5.000000e+00
      vertex 9.463830e-01 -5.367200e+00 5.000000e+00
    endloop
  endfacet
  facet normal 0.000000e+00 2.220450e-16 1.000000e+00
    outer loop
      vertex 1.232500e+01 -1.385640e+00 5.000000e+00
      vertex 1.152500e+01 1.110220e-15 5.000000e+00
      vertex 5.121320e+00 1.864010e+00 5.000000e+00
    endloop
  endfacet
  facet normal 0.000000e+00 2.220450e-16 1.000000e+00
    outer loop
      vertex 1.152500e+01 1.110220e-15 5.000000e+00
      vertex 1.232500e+01 1.385640e+00 5.000000e+00
      vertex 5.121320e+00 1.864010e+00 5.000000e+00
    endloop
  endfacet
  facet normal 0.000000e+00 2.220450e-16 1.000000e+00
    outer loop
      vertex 1.472500e+01 1.110220e-15 5.000000e+00
      vertex 1.392500e+01 -1.385640e+00 5.000000e+00
      vertex 1.750000e+01 -1.000000e+01 5.000000e+00
    endloop
  endfacet
  facet normal 0.000000e+00 2.220450e-16 1.000000e+00
    outer loop
      vertex 1.472500e+01 1.110220e-15 5.000000e+00
      vertex 1.750000e+01 1.000000e+01 5.000000e+00
      vertex 1.392500e+01 1.385640e+00 5.000000e+00
    endloop
  endfacet
  facet normal 0.000000e+00 2.220450e-16 1.000000e+00
    outer loop
      vertex 1.392500e+01 -1.385640e+00 5.000000e+00
      vertex 1.232500e+01 -1.385640e+00 5.000000e+00
      vertex 1.750000e+01 -1.000000e+01 5.000000e+00
    endloop
  endfacet
  facet normal 0.000000e+00 2.220450e-16 1.000000e+00
    outer loop
      vertex 1.750000e+01 -1.000000e+01 5.000000e+00
      vertex 1.750000e+01 1.000000e+01 5.000000e+00
      vertex 1.472500e+01 1.110220e-15 5.000000e+00
    endloop
  endfacet
  facet normal 0.000000e+00 2.220450e-16 1.000000e+00
    outer loop
      vertex 1.750000e+01 -1.000000e+01 5.000000e+00
      vertex 1.232500e+01 -1.385640e+00 5.000000e+00
      vertex 5.121320e+00 1.864010e+00 5.000000e+00
    endloop
  endfacet
  facet normal 0.000000e+00 2.220450e-16 1.000000e+00
    outer loop
      vertex -1.232500e+01 1.385640e+00 5.000000e+00
      vertex -1.152500e+01 1.110220e-15 5.000000e+00
      vertex -4.174940e+00 3.503190e+00 5.000000e+00
    endloop
  endfacet
  facet normal 0.000000e+00 2.220450e-16 1.000000e+00
    outer loop
      vertex -4.174940e+00 3.503190e+00 5.000000e+00
      vertex -1.392500e+01 1.385640e+00 5.000000e+00
      vertex -1.232500e+01 1.385640e+00 5.000000e+00
    endloop
  endfacet
  facet normal 0.000000e+00 2.220450e-16 1.000000e+00
    outer loop
      vertex -4.174940e+00 3.503190e+00 5.000000e+00
      vertex -2.725000e+00 4.719840e+00 5.000000e+00
      vertex -1.392500e+01 1.385640e+00 5.000000e+00
    endloop
  endfacet
  facet normal 0.000000e+00 -1.000000e+00 2.220450e-16
    outer loop
      vertex -1.750000e+01 -1.000000e+01 5.000000e+00
      vertex -1.750000e+01 -1.000000e+01 0.000000e+00
      vertex 1.750000e+01 -1.000000e+01 0.000000e+00
    endloop
  endfacet
  facet normal 0.000000e+00 -1.000000e+00 2.220450e-16
    outer loop
      vertex 1.750000e+01 -1.000000e+01 5.000000e+00
      vertex -1.750000e+01 -1.000000e+01 5.000000e+00
      vertex 1.750000e+01 -1.000000e+01 0.000000e+00
    endloop
  endfacet
  facet normal 1.000000e+00 0.000000e+00 0.000000e+00
    outer loop
      vertex 1.750000e+01 -1.000000e+01 0.000000e+00
      vertex 1.750000e+01 1.000000e+01 0.000000e+00
      vertex 1.750000e+01 1.000000e+01 5.000000e+00
    endloop
  endfacet
  facet normal 1.000000e+00 0.000000e+00 0.000000e+00
    outer loop
      vertex 1.750000e+01 -1.000000e+01 5.000000e+00
      vertex 1.750000e+01 -1.000000e+01 0.000000e+00
      vertex 1.750000e+01 1.000000e+01 5.000000e+00
    endloop
  endfacet
  facet normal 8.660253e-01 -5.000002e-01 2.220451e-16
    outer loop
      vertex -1.392500e+01 1.385640e+00 0.000000e+00
      vertex -1.392500e+01 1.385640e+00 5.000000e+00
      vertex -1.472500e+01 1.110220e-15 5.000000e+00
    endloop
  endfacet
  facet normal 8.660253e-01 -5.000002e-01 2.220451e-16
    outer loop
      vertex -1.472500e+01 -1.110220e-15 0.000000e+00
      vertex -1.392500e+01 1.385640e+00 0.000000e+00
      vertex -1.472500e+01 1.110220e-15 5.000000e+00
    endloop
  endfacet
  facet normal 0.000000e+00 -1.000000e+00 4.440890e-16
    outer loop
      vertex -1.232500e+01 1.385640e+00 0.000000e+00
      vertex -1.232500e+01 1.385640e+00 5.000000e+00
      vertex -1.392500e+01 1.385640e+00 5.000000e+00
    endloop
  endfacet
  facet normal 0.000000e+00 -1.000000e+00 4.440890e-16
    outer loop
      vertex -1.392500e+01 1.385640e+00 0.000000e+00
      vertex -1.232500e+01 1.385640e+00 0.000000e+00
      vertex -1.392500e+01 1.385640e+00 5.000000e+00
    endloop
  endfacet
  facet normal -8.660253e-01 -5.000002e-01 2.220451e-16
    outer loop
      vertex -1.152500e+01 1.110220e-15 5.000000e+00
      vertex -1.232500e+01 1.385640e+00 5.000000e+00
      vertex -1.152500e+01 -1.110220e-15 0.000000e+00
    endloop
  endfacet
  facet normal -8.660253e-01 -5.000002e-01 2.220451e-16
    outer loop
      vertex -1.152500e+01 -1.110220e-15 0.000000e+00
      vertex -1.232500e+01 1.385640e+00 5.000000e+00
      vertex -1.232500e+01 1.385640e+00 0.000000e+00
    endloop
  endfacet
  facet normal -8.660253e-01 5.000002e-01 -2.220451e-16
    outer loop
      vertex -1.152500e+01 1.110220e-15 5.000000e+00
      vertex -1.152500e+01 -1.110220e-15 0.000000e+00
      vertex -1.232500e+01 -1.385640e+00 5.000000e+00
    endloop
  endfacet
  facet normal -8.660253e-01 5.000002e-01 -2.220451e-16
    outer loop
      vertex -1.232500e+01 -1.385640e+00 5.000000e+00
      vertex -1.152500e+01 -1.110220e-15 0.000000e+00
      vertex -1.232500e+01 -1.385640e+00 0.000000e+00
    endloop
  endfacet
  facet normal 0.000000e+00 1.000000e+00 -4.440890e-16
    outer loop
      vertex -1.232500e+01 -1.385640e+00 5.000000e+00
      vertex -1.232500e+01 -1.385640e+00 0.000000e+00
      vertex -1.392500e+01 -1.385640e+00 5.000000e+00
    endloop
  endfacet
  facet normal 0.000000e+00 1.000000e+00 -4.440890e-16
    outer loop
      vertex -1.392500e+01 -1.385640e+00 5.000000e+00
      vertex -1.232500e+01 -1.385640e+00 0.000000e+00
      vertex -1.392500e+01 -1.385640e+00 0.000000e+00
    endloop
  endfacet
  facet normal 8.660253e-01 5.000002e-01 -2.220451e-16
    outer loop
      vertex -1.472500e+01 1.110220e-15 5.000000e+00
      vertex -1.392500e+01 -1.385640e+00 5.000000e+00
      vertex -1.392500e+01 -1.385640e+00 0.000000e+00
    endloop
  endfacet
  facet normal 8.660253e-01 5.000002e-01 -2.220451e-16
    outer loop
      vertex -1.472500e+01 -1.110220e-15 0.000000e+00
      vertex -1.472500e+01 1.110220e-15 5.000000e+00
      vertex -1.392500e+01 -1.385640e+00 0.000000e+00
    endloop
  endfacet
  facet normal 9.848078e-01 -1.736480e-01 7.711518e-17
    outer loop
      vertex -5.121320e+00 1.864010e+00 0.000000e+00
      vertex -5.121320e+00 1.864010e+00 5.000000e+00
      vertex -5.450000e+00 1.110220e-15 5.000000e+00
    endloop
  endfacet
  facet normal 9.848078e-01 -1.736480e-01 7.711518e-17
    outer loop
      vertex -5.450000e+00 -1.110220e-15 0.000000e+00
      vertex -5.121320e+00 1.864010e+00 0.000000e+00
      vertex -5.450000e+00 1.110220e-15 5.000000e+00
    endloop
  endfacet
  facet normal 8.660253e-01 -5.000002e-01 2.220451e-16
    outer loop
      vertex -4.174940e+00 3.503190e+00 0.000000e+00
      vertex -4.174940e+00 3.503190e+00 5.000000e+00
      vertex -5.121320e+00 1.864010e+00 5.000000e+00
    endloop
  endfacet
  facet normal 8.660253e-01 -5.000002e-01 2.220451e-16
    outer loop
      vertex -5.121320e+00 1.864010e+00 0.000000e+00
      vertex -4.174940e+00 3.503190e+00 0.000000e+00
      vertex -5.121320e+00 1.864010e+00 5.000000e+00
    endloop
  endfacet
  facet normal 6.427881e-01 -7.660441e-01 3.401920e-16
    outer loop
      vertex -2.725000e+00 4.719840e+00 0.000000e+00
      vertex -2.725000e+00 4.719840e+00 5.000000e+00
      vertex -4.174940e+00 3.503190e+00 5.000000e+00
    endloop
  endfacet
  facet normal 6.427881e-01 -7.660441e-01 3.401920e-16
    outer loop
      vertex -4.174940e+00 3.503190e+00 0.000000e+00
      vertex -2.725000e+00 4.719840e+00 0.000000e+00
      vertex -4.174940e+00 3.503190e+00 5.000000e+00
    endloop
  endfacet
  facet normal 3.420199e-01 -9.396927e-01 4.173069e-16
    outer loop
      vertex -9.463830e-01 5.367200e+00 0.000000e+00
      vertex -9.463830e-01 5.367200e+00 5.000000e+00
      vertex -2.725000e+00 4.719840e+00 5.000000e+00
    endloop
  endfacet
  facet normal 3.420199e-01 -9.396927e-01 4.173069e-16
    outer loop
      vertex -2.725000e+00 4.719840e+00 0.000000e+00
      vertex -9.463830e-01 5.367200e+00 0.000000e+00
      vertex -2.725000e+00 4.719840e+00 5.000000e+00
    endloop
  endfacet
  facet normal 0.000000e+00 -1.000000e+00 4.440890e-16
    outer loop
      vertex 9.463830e-01 5.367200e+00 0.000000e+00
      vertex 9.463830e-01 5.367200e+00 5.000000e+00
      vertex -9.463830e-01 5.367200e+00 5.000000e+00
    endloop
  endfacet
  facet normal 0.000000e+00 -1.000000e+00 4.440890e-16
    outer loop
      vertex -9.463830e-01 5.367200e+00 0.000000e+00
      vertex 9.463830e-01 5.367200e+00 0.000000e+00
      vertex -9.463830e-01 5.367200e+00 5.000000e+00
    endloop
  endfacet
  facet normal -3.420199e-01 -9.396927e-01 4.173069e-16
    outer loop
      vertex 2.725000e+00 4.719840e+00 0.000000e+00
      vertex 2.725000e+00 4.719840e+00 5.000000e+00
      vertex 9.463830e-01 5.367200e+00 5.000000e+00
    endloop
  endfacet
  facet normal -3.420199e-01 -9.396927e-01 4.173069e-16
    outer loop
      vertex 9.463830e-01 5.367200e+00 0.000000e+00
      vertex 2.725000e+00 4.719840e+00 0.000000e+00
      vertex 9.463830e-01 5.367200e+00 5.000000e+00
    endloop
  endfacet
  facet normal -6.427881e-01 -7.660441e-01 3.401920e-16
    outer loop
      vertex 4.174940e+00 3.503190e+00 0.000000e+00
      vertex 4.174940e+00 3.503190e+00 5.000000e+00
      vertex 2.725000e+00 4.719840e+00 5.000000e+00
    endloop
  endfacet
  facet normal -6.427881e-01 -7.660441e-01 3.401920e-16
    outer loop
      vertex 2.725000e+00 4.719840e+00 0.000000e+00
      vertex 4.174940e+00 3.503190e+00 0.000000e+00
      vertex 2.725000e+00 4.719840e+00 5.000000e+00
    endloop
  endfacet
  facet normal -8.660253e-01 -5.000002e-01 2.220451e-16
    outer loop
      vertex 5.121320e+00 1.864010e+00 5.000000e+00
      vertex 4.174940e+00 3.503190e+00 5.000000e+00
      vertex 5.121320e+00 1.864010e+00 0.000000e+00
    endloop
  endfacet
  facet normal -8.660253e-01 -5.000002e-01 2.220451e-16
    outer loop
      vertex 5.121320e+00 1.864010e+00 0.000000e+00
      vertex 4.174940e+00 3.503190e+00 5.000000e+00
      vertex 4.174940e+00 3.503190e+00 0.000000e+00
    endloop
  endfacet
  facet normal -9.848078e-01 -1.736480e-01 7.711518e-17
    outer loop
      vertex 5.450000e+00 1.110220e-15 5.000000e+00
      vertex 5.121320e+00 1.864010e+00 5.000000e+00
      vertex 5.450000e+00 -1.110220e-15 0.000000e+00
    endloop
  endfacet
  facet normal -9.848078e-01 -1.736480e-01 7.711518e-17
    outer loop
      vertex 5.450000e+00 -1.110220e-15 0.000000e+00
      vertex 5.121320e+00 1.864010e+00 5.000000e+00
      vertex 5.121320e+00 1.864010e+00 0.000000e+00
    endloop
  endfacet
  facet normal -9.848078e-01 1.736480e-01 -7.711518e-17
    outer loop
      vertex 5.450000e+00 1.110220e-15 5.000000e+00
      vertex 5.450000e+00 -1.110220e-15 0.000000e+00
      vertex 5.121320e+00 -1.864010e+00 5.000000e+00
    endloop
  endfacet
  facet normal -9.848078e-01 1.736480e-01 -7.711518e-17
    outer loop
      vertex 5.121320e+00 -1.864010e+00 5.000000e+00
      vertex 5.450000e+00 -1.110220e-15 0.000000e+00
      vertex 5.121320e+00 -1.864010e+00 0.000000e+00
    endloop
  endfacet
  facet normal -8.660253e-01 5.000002e-01 -2.220451e-16
    outer loop
      vertex 5.121320e+00 -1.864010e+00 5.000000e+00
      vertex 5.121320e+00 -1.864010e+00 0.000000e+00
      vertex 4.174940e+00 -3.503190e+00 5.000000e+00
    endloop
  endfacet
  facet normal -8.660253e-01 5.000002e-01 -2.220451e-16
    outer loop
      vertex 4.174940e+00 -3.503190e+00 5.000000e+00
      vertex 5.121320e+00 -1.864010e+00 0.000000e+00
      vertex 4.174940e+00 -3.503190e+00 0.000000e+00
    endloop
  endfacet
  facet normal -6.427881e-01 7.660441e-01 -3.401920e-16
    outer loop
      vertex 4.174940e+00 -3.503190e+00 5.000000e+00
      vertex 4.174940e+00 -3.503190e+00 0.000000e+00
      vertex 2.725000e+00 -4.719840e+00 5.000000e+00
    endloop
  endfacet
  facet normal -6.427881e-01 7.660441e-01 -3.401920e-16
    outer loop
      vertex 2.725000e+00 -4.719840e+00 5.000000e+00
      vertex 4.174940e+00 -3.503190e+00 0.000000e+00
      vertex 2.725000e+00 -4.719840e+00 0.000000e+00
    endloop
  endfacet
  facet normal -3.420199e-01 9.396927e-01 -4.173069e-16
    outer loop
      vertex 2.725000e+00 -4.719840e+00 5.000000e+00
      vertex 2.725000e+00 -4.719840e+00 0.000000e+00
      vertex 9.463830e-01 -5.367200e+00 5.000000e+00
    endloop
  endfacet
  facet normal -3.420199e-01 9.396927e-01 -4.173069e-16
    outer loop
      vertex 9.463830e-01 -5.367200e+00 5.000000e+00
      vertex 2.725000e+00 -4.719840e+00 0.000000e+00
      vertex 9.463830e-01 -5.367200e+00 0.000000e+00
    endloop
  endfacet
  facet normal 0.000000e+00 1.000000e+00 -4.440890e-16
    outer loop
      vertex 9.463830e-01 -5.367200e+00 5.000000e+00
      vertex 9.463830e-01 -5.367200e+00 0.000000e+00
      vertex -9.463830e-01 -5.367200e+00 5.000000e+00
    endloop
  endfacet
  facet normal 0.000000e+00 1.000000e+00 -4.440890e-16
    outer loop
      vertex -9.463830e-01 -5.367200e+00 5.000000e+00
      vertex 9.463830e-01 -5.367200e+00 0.000000e+00
      vertex -9.463830e-01 -5.367200e+00 0.000000e+00
    endloop
  endfacet
  facet normal 3.420199e-01 9.396927e-01 -4.173069e-16
    outer loop
      vertex -9.463830e-01 -5.367200e+00 5.000000e+00
      vertex -9.463830e-01 -5.367200e+00 0.000000e+00
      vertex -2.725000e+00 -4.719840e+00 5.000000e+00
    endloop
  endfacet
  facet normal 3.420199e-01 9.396927e-01 -4.173069e-16
    outer loop
      vertex -2.725000e+00 -4.719840e+00 5.000000e+00
      vertex -9.463830e-01 -5.367200e+00 0.000000e+00
      vertex -2.725000e+00 -4.719840e+00 0.000000e+00
    endloop
  endfacet
  facet normal 6.427881e-01 7.660441e-01 -3.401920e-16
    outer loop
      vertex -2.725000e+00 -4.719840e+00 5.000000e+00
      vertex -2.725000e+00 -4.719840e+00 0.000000e+00
      vertex -4.174940e+00 -3.503190e+00 5.000000e+00
    endloop
  endfacet
  facet normal 6.427881e-01 7.660441e-01 -3.401920e-16
    outer loop
      vertex -4.174940e+00 -3.503190e+00 5.000000e+00
      vertex -2.725000e+00 -4.719840e+00 0.000000e+00
      vertex -4.174940e+00 -3.503190e+00 0.000000e+00
    endloop
  endfacet
  facet normal 8.660253e-01 5.000002e-01 -2.220451e-16
    outer loop
      vertex -5.121320e+00 -1.864010e+00 5.000000e+00
      vertex -4.174940e+00 -3.503190e+00 5.000000e+00
      vertex -4.174940e+00 -3.503190e+00 0.000000e+00
    endloop
  endfacet
  facet normal 8.660253e-01 5.000002e-01 -2.220451e-16
    outer loop
      vertex -5.121320e+00 -1.864010e+00 0.000000e+00
      vertex -5.121320e+00 -1.864010e+00 5.000000e+00
      vertex -4.174940e+00 -3.503190e+00 0.000000e+00
    endloop
  endfacet
  facet normal 9.848078e-01 1.736480e-01 -7.711518e-17
    outer loop
      vertex -5.450000e+00 1.110220e-15 5.000000e+00
      vertex -5.121320e+00 -1.864010e+00 5.000000e+00
      vertex -5.121320e+00 -1.864010e+00 0.000000e+00
    endloop
  endfacet
  facet normal 9.848078e-01 1.736480e-01 -7.711518e-17
    outer loop
      vertex -5.450000e+00 -1.110220e-15 0.000000e+00
      vertex -5.450000e+00 1.110220e-15 5.000000e+00
      vertex -5.121320e+00 -1.864010e+00 0.000000e+00
    endloop
  endfacet
  facet normal 8.660253e-01 -5.000002e-01 2.220451e-16
    outer loop
      vertex 1.232500e+01 1.385640e+00 0.000000e+00
      vertex 1.232500e+01 1.385640e+00 5.000000e+00
      vertex 1.152500e+01 1.110220e-15 5.000000e+00
    endloop
  endfacet
  facet normal 8.660253e-01 -5.000002e-01 2.220451e-16
    outer loop
      vertex 1.152500e+01 -1.110220e-15 0.000000e+00
      vertex 1.232500e+01 1.385640e+00 0.000000e+00
      vertex 1.152500e+01 1.110220e-15 5.000000e+00
    endloop
  endfacet
  facet normal 0.000000e+00 -1.000000e+00 4.440890e-16
    outer loop
      vertex 1.392500e+01 1.385640e+00 0.000000e+00
      vertex 1.392500e+01 1.385640e+00 5.000000e+00
      vertex 1.232500e+01 1.385640e+00 5.000000e+00
    endloop
  endfacet
  facet normal 0.000000e+00 -1.000000e+00 4.440890e-16
    outer loop
      vertex 1.232500e+01 1.385640e+00 0.000000e+00
      vertex 1.392500e+01 1.385640e+00 0.000000e+00
      vertex 1.232500e+01 1.385640e+00 5.000000e+00
    endloop
  endfacet
  facet normal -8.660253e-01 -5.000002e-01 2.220451e-16
    outer loop
      vertex 1.472500e+01 1.110220e-15 5.000000e+00
      vertex 1.392500e+01 1.385640e+00 5.000000e+00
      vertex 1.472500e+01 -1.110220e-15 0.000000e+00
    endloop
  endfacet
  facet normal -8.660253e-01 -5.000002e-01 2.220451e-16
    outer loop
      vertex 1.472500e+01 -1.110220e-15 0.000000e+00
      vertex 1.392500e+01 1.385640e+00 5.000000e+00
      vertex 1.392500e+01 1.385640e+00 0.000000e+00
    endloop
  endfacet
  facet normal -8.660253e-01 5.000002e-01 -2.220451e-16
    outer loop
      vertex 1.472500e+01 1.110220e-15 5.000000e+00
      vertex 1.472500e+01 -1.110220e-15 0.000000e+00
      vertex 1.392500e+01 -1.385640e+00 5.000000e+00
    endloop
  endfacet
  facet normal -8.660253e-01 5.000002e-01 -2.220451e-16
    outer loop
      vertex 1.392500e+01 -1.385640e+00 5.000000e+00
      vertex 1.472500e+01 -1.110220e-15 0.000000e+00
      vertex 1.392500e+01 -1.385640e+00 0.000000e+00
    endloop
  endfacet
  facet normal 0.000000e+00 1.000000e+00 -4.440890e-16
    outer loop
      vertex 1.392500e+01 -1.385640e+00 5.000000e+00
      vertex 1.392500e+01 -1.385640e+00 0.000000e+00
      vertex 1.232500e+01 -1.385640e+00 5.000000e+00
    endloop
  endfacet
  facet normal 0.000000e+00 1.000000e+00 -4.440890e-16
    outer loop
      vertex 1.232500e+01 -1.385640e+00 5.000000e+00
      vertex 1.392500e+01 -1.385640e+00 0.000000e+00
      vertex 1.232500e+01 -1.385640e+00 0.000000e+00
    endloop
  endfacet
  facet normal 8.660253e-01 5.000002e-01 -2.220451e-16
    outer loop
      vertex 1.152500e+01 1.110220e-15 5.000000e+00
      vertex 1.232500e+01 -1.385640e+00 5.000000e+00
      vertex 1.232500e+01 -1.385640e+00 0.000000e+00
    endloop
  endfacet
  facet normal 8.660253e-01 5.000002e-01 -2.220451e-16
    outer loop
      vertex 1.152500e+01 -1.110220e-15 0.000000e+00
      vertex 1.152500e+01 1.110220e-15 5.000000e+00
      vertex 1.232500e+01 -1.385640e+00 0.000000e+00
    endloop
  endfacet
endsolid Default
